<?xml version="1.0" standalone="no"?>
<svg xmlns:xlink="http://www.w3.org/1999/xlink" id="wave" style="transform:rotate(0deg); transition: 0.3s" viewBox="0 0 1440 490" version="1.1" xmlns="http://www.w3.org/2000/svg"><defs><linearGradient id="sw-gradient-0" x1="0" x2="0" y1="1" y2="0"><stop stop-color="rgba(243, 106, 62, 1)" offset="0%"/><stop stop-color="rgba(255, 179, 11, 1)" offset="100%"/></linearGradient></defs><path style="transform:translate(0, 0px); opacity:1" fill="url(#sw-gradient-0)" d="M0,343L26.7,294C53.3,245,107,147,160,114.3C213.3,82,267,114,320,155.2C373.3,196,427,245,480,245C533.3,245,587,196,640,147C693.3,98,747,49,800,24.5C853.3,0,907,0,960,8.2C1013.3,16,1067,33,1120,106.2C1173.3,180,1227,310,1280,375.7C1333.3,441,1387,441,1440,400.2C1493.3,359,1547,278,1600,212.3C1653.3,147,1707,98,1760,122.5C1813.3,147,1867,245,1920,310.3C1973.3,376,2027,408,2080,359.3C2133.3,310,2187,180,2240,106.2C2293.3,33,2347,16,2400,32.7C2453.3,49,2507,98,2560,171.5C2613.3,245,2667,343,2720,318.5C2773.3,294,2827,147,2880,89.8C2933.3,33,2987,65,3040,73.5C3093.3,82,3147,65,3200,57.2C3253.3,49,3307,49,3360,40.8C3413.3,33,3467,16,3520,57.2C3573.3,98,3627,196,3680,204.2C3733.3,212,3787,131,3813,89.8L3840,49L3840,490L3813.3,490C3786.7,490,3733,490,3680,490C3626.7,490,3573,490,3520,490C3466.7,490,3413,490,3360,490C3306.7,490,3253,490,3200,490C3146.7,490,3093,490,3040,490C2986.7,490,2933,490,2880,490C2826.7,490,2773,490,2720,490C2666.7,490,2613,490,2560,490C2506.7,490,2453,490,2400,490C2346.7,490,2293,490,2240,490C2186.7,490,2133,490,2080,490C2026.7,490,1973,490,1920,490C1866.7,490,1813,490,1760,490C1706.7,490,1653,490,1600,490C1546.7,490,1493,490,1440,490C1386.7,490,1333,490,1280,490C1226.7,490,1173,490,1120,490C1066.7,490,1013,490,960,490C906.7,490,853,490,800,490C746.7,490,693,490,640,490C586.7,490,533,490,480,490C426.7,490,373,490,320,490C266.7,490,213,490,160,490C106.7,490,53,490,27,490L0,490Z"/></svg>